<svg width="398" height="1221" viewBox="0 0 398 1221" fill="none" xmlns="http://www.w3.org/2000/svg">
<g filter="url(#filter0_d_1_2)">
<path d="M91 26.1722C91 26.9722 91.5333 27.9055 92.3333 28.3055C93.1333 28.7055 93.2667 28.1722 92.8667 27.1055C91.9333 24.7055 91 24.3055 91 26.1722Z" fill="#024B18"/>
<path d="M133.667 264.305C133.667 378.972 133.267 473.772 132.867 474.972C132.2 476.572 129.667 476.972 120.867 476.972C109.933 476.972 109.8 476.972 104.467 481.905C101.267 485.105 98.7333 489.105 97.8 492.572C96.7333 496.572 96.3333 524.972 96.6 590.572L97 682.972L99.9333 688.972C104.067 697.372 106.867 698.705 121 699.105C135.4 699.505 134.6 697.905 133.667 724.705L133 743.905L128.333 747.772C120.867 754.172 120.6 754.305 117.8 754.305C116.333 754.305 114.733 754.839 114.333 755.639C113.933 756.305 111.133 756.972 108.333 756.972C105.533 756.972 102.733 757.505 102.333 758.305C101.933 758.972 99.1333 759.639 96.3333 759.639C89.8 759.639 82.6 766.039 80.4667 773.639C78.8667 779.505 80.6 794.439 83.8 802.172C87.9333 812.039 87.2667 813.906 42.4667 927.639C32.3333 953.506 23.9333 979.106 21 992.706C18.3333 1005.64 18.3333 1038.04 21 1052.31C25.8 1077.51 37 1101.24 55.2667 1124.97C59.5333 1130.44 64.3333 1136.71 66.0667 1138.84C70.3333 1144.57 92.0667 1166.31 93.4 1166.31C94.0667 1166.31 96.0667 1167.91 97.9333 1169.91C99.6667 1172.04 103.533 1175.37 106.333 1177.64C109.133 1179.77 112.867 1182.97 114.467 1184.57C116.2 1186.31 118.2 1187.64 119 1187.64C119.667 1187.64 120.333 1188.17 120.333 1188.97C120.333 1189.64 121.267 1190.31 122.333 1190.31C123.4 1190.31 124.333 1190.84 124.333 1191.64C124.333 1192.31 125.267 1192.57 126.333 1192.17C127.4 1191.64 128.333 1191.91 128.333 1192.71C128.333 1193.37 130.467 1194.31 133.133 1194.57C137.133 1194.97 138.333 1194.57 140.467 1191.51C145.4 1184.44 142.867 1175.64 133.4 1166.71C125.8 1159.64 107.533 1139.24 99.5333 1128.97C95.2667 1123.51 91.1333 1118.31 90.3333 1117.51C89.5333 1116.71 86.6 1112.57 83.6667 1108.17C80.7333 1103.91 77.6667 1099.51 76.7333 1098.57C73.4 1094.97 57.6667 1061.11 55.6667 1053.11C52.8667 1041.77 51.6667 1017.11 53.5333 1005.64C55.9333 989.639 67 955.905 82.3333 917.639C118.467 827.239 116.467 833.105 117 810.572C117.4 794.039 118.2 789.905 121.4 789.505C122.867 789.372 127.4 787.639 129.933 786.172C131.267 785.505 133.267 784.972 134.333 784.972C135.4 784.972 136.333 784.305 136.333 783.639C136.333 782.839 137.4 782.305 138.733 782.305C142.6 782.305 153.933 772.572 157.933 765.905C162.867 757.372 165.667 741.105 165.667 720.305C165.667 711.239 166.067 702.972 166.467 701.772C167.133 699.905 171.267 699.639 198.467 699.639H229.667L229.8 703.239C229.933 705.372 229.8 713.905 229.8 722.305C229.533 740.572 230.867 748.705 236.2 760.172C240.2 768.572 249.8 779.639 253.267 779.639C254.2 779.639 255 780.172 255 780.972C255 781.639 256.2 782.305 257.667 782.305C259.133 782.305 260.333 782.839 260.333 783.639C260.333 784.305 261.533 784.972 263 784.972C264.467 784.972 265.667 785.505 265.667 786.305C265.667 786.972 267.267 787.639 269.4 787.639C271.4 787.639 274.333 788.839 276.067 790.039C279 792.305 279.267 793.372 279.533 809.772C279.8 825.905 280.2 827.772 284.733 839.639C296.733 871.372 301.667 884.172 304.867 891.239C308.733 900.039 320.333 929.906 321 932.972C321.267 934.039 325 944.306 329.4 955.639C343.667 993.239 345.533 1001.24 345.667 1024.31C345.667 1054.04 339.8 1070.57 317.667 1102.84C314.2 1107.91 305.133 1120.31 304.333 1120.97C303.933 1121.37 301 1124.97 297.8 1128.97C291.4 1137.24 276.333 1154.17 266.6 1163.91C252.867 1177.91 249.267 1186.57 254.733 1192.44C257 1194.97 267 1196.17 267 1193.91C267 1193.37 267.8 1192.97 268.733 1192.97C269.667 1192.97 271.267 1191.77 272.333 1190.31C273.4 1188.84 274.867 1187.64 275.667 1187.64C276.467 1187.64 277.933 1186.44 279 1184.97C280.067 1183.51 281.4 1182.31 282.067 1182.31C283 1182.31 291.667 1176.44 293.667 1174.31C294.067 1173.91 297.267 1171.24 301 1168.31C311.267 1160.04 331.4 1139.24 340.867 1127.11C349.4 1116.31 360.6 1098.04 365.667 1086.97C372.6 1071.77 379 1042.17 379 1025.77C378.867 1001.51 369.533 965.639 350.333 916.972C346.2 906.305 341.133 892.839 339 886.972C337 881.105 333.4 871.905 331.267 866.572C329 861.372 327.4 856.972 327.8 856.972C328.067 856.972 327.533 855.372 326.467 853.372C321.8 844.172 310.733 813.239 310.733 808.972C310.733 806.439 311.933 798.572 313.667 791.505C316.067 781.105 316.333 777.772 315.133 773.505C313.667 768.039 308.067 760.439 306.467 761.905C306.067 762.305 305.667 762.039 305.667 761.239C305.667 760.305 303.533 759.639 300.467 759.639C297.533 759.639 294.733 758.972 294.333 758.305C293.933 757.505 291.133 756.972 288.2 756.972C285.4 756.972 283 756.305 283 755.639C283 754.839 281.8 754.305 280.333 754.305C274.6 754.305 264.733 745.905 262.867 739.239C261.4 734.172 261.267 703.639 262.733 701.505C263.267 700.705 269.4 699.639 276.333 699.239C283.267 698.839 289.133 697.772 289.4 696.972C289.667 696.305 290.6 695.639 291.533 695.639C294.333 695.639 298.6 689.905 300.2 684.305C302.2 676.972 302.2 503.105 300.2 495.105C298.733 489.372 291.4 479.639 288.6 479.639C287.667 479.639 287 478.972 287 478.305C287 477.505 282.067 476.972 275 476.972C264.467 476.972 263 476.705 262.867 474.572C262.867 473.372 262.867 385.905 262.867 280.305C263 174.705 262.6 80.9722 262.2 71.9055L261.4 55.6388H246.2H231L230.867 113.905C230.733 146.039 230.6 204.972 230.333 244.972C230.067 284.972 229.8 353.505 229.8 397.239L229.667 476.972H198.467C171.267 476.972 167.133 476.705 166.467 474.839C166.067 473.639 165.667 378.839 165.667 264.172V55.6388H149.667H133.8L133.667 264.305ZM161.533 60.7055C162.6 62.5722 163 126.972 163 269.772C162.867 461.105 163.133 476.172 165.133 478.439C167.267 480.705 169.933 480.972 197.8 480.972H228.2L230.867 477.505C233.4 474.172 233.533 472.305 233.533 426.572C233.8 210.039 234.467 60.9722 235.4 60.0388C236.067 59.5055 241.267 58.9722 247.133 58.9722C256.733 58.8388 257.8 59.1055 258.467 61.6388C259.133 64.7055 259.4 83.7721 259.267 121.639C259.267 136.305 259.267 173.772 259.4 204.972C259.667 314.972 259.533 444.439 259.133 462.039C258.6 479.372 259.8 480.972 273 480.972C278.467 480.972 283.267 480.972 283.667 480.972C286.867 480.839 296.067 491.772 297 496.839C298.867 506.572 297.933 686.972 296.067 688.305C295.8 688.439 293.667 689.905 291.4 691.505C289 693.105 287 694.172 287 693.772C287 693.372 283.8 694.172 280.067 695.505C275.4 696.972 271.533 697.505 268.6 696.839C265 696.172 263.8 696.439 261.667 699.372C259.267 702.305 259 704.705 259 721.239C259 743.105 260.333 746.972 270.733 753.905C277 758.039 290.867 762.305 298.467 762.305C302.467 762.439 308.333 766.572 310.867 771.372C312.6 774.705 312.867 788.572 311.133 789.239C310.467 789.372 309.667 792.305 309.267 795.639C308.867 798.972 308.2 803.505 307.667 805.905C306.6 810.705 308.6 818.039 317 838.972C317.933 841.105 319.267 844.705 320.067 846.972C320.867 849.105 325.4 860.839 330.067 872.972C334.867 885.105 339.667 898.305 341 902.305C342.333 906.305 343.8 910.172 344.333 910.972C344.867 911.639 345.933 914.039 346.733 916.305C347.4 918.439 349.667 924.439 351.533 929.639C359.4 950.572 368.467 978.706 369.133 984.039C369.533 987.106 370.733 992.572 371.8 996.306C372.867 999.906 374.067 1008.97 374.467 1016.31C374.867 1023.64 375.4 1031.37 375.667 1033.37C376.067 1035.51 375.667 1039.91 374.867 1043.37C374.067 1046.84 373.267 1050.84 372.867 1052.31C366.067 1086.71 350.867 1113.77 321.133 1144.84C312.067 1154.44 287.4 1175.51 277.667 1182.17C275.133 1183.91 272.333 1186.04 271.667 1186.84C269.4 1189.24 264.6 1191.64 261.933 1191.64C255.533 1191.64 254.467 1183.51 259.933 1176.71C261.933 1174.31 270.467 1164.84 279 1155.64C287.4 1146.44 294.733 1138.31 295.4 1137.64C295.933 1136.84 300.2 1131.51 304.733 1125.64C340.867 1079.64 350.467 1056.84 349.267 1019.91C348.867 1010.57 347.933 1000.31 347 996.972C343.8 984.972 330.2 946.572 319.533 919.639C317.133 913.372 313.667 904.439 311.8 899.639C310.067 894.839 305.267 882.572 301 872.305C296.867 862.039 291.133 847.105 288.2 839.239C283.267 825.372 283 824.039 283 808.305V791.905L278.333 787.772C275.667 785.505 272.733 783.639 271.533 783.639C267.4 783.639 252.733 775.772 247.933 770.839C245.133 768.039 241 761.905 238.6 757.105C234.333 748.439 234.333 748.172 233.667 724.039C233 701.772 232.733 699.639 230.333 697.772C228.2 696.172 222.333 695.905 198.333 696.039C169.667 696.305 169 696.305 165.933 699.372C163.267 702.172 163 703.772 162.867 715.372C162.733 745.372 159.933 759.505 152.333 768.439C148.067 773.505 139.933 779.639 137.533 779.639C136.467 779.639 134.067 780.439 132.2 781.505C130.333 782.439 127.4 783.639 125.533 784.039C123.8 784.572 120.6 786.305 118.467 788.039L114.467 791.239L114.2 809.239C113.8 828.572 112.467 835.372 105.4 852.172C100.733 863.239 91.9333 885.239 88.0667 895.639C84.8667 903.905 76.7333 924.306 74.8667 928.306C74.3333 929.772 72.8667 933.372 71.9333 936.306C67.4 949.372 62.7333 961.906 61.5333 964.306C60.8667 965.772 59.1333 971.506 57.6667 976.972C56.0667 982.439 53.9333 990.306 52.7333 994.306C50.3333 1002.17 49.4 1037.77 51.2667 1048.31C53.5333 1061.11 61.8 1081.11 70.7333 1094.84C72.7333 1097.91 75 1101.77 75.9333 1103.37C77.6667 1106.44 92.8667 1126.97 95.5333 1129.77C96.3333 1130.57 99.1333 1133.77 101.667 1136.97C104.2 1140.17 107 1143.37 107.667 1144.17C108.467 1144.97 115.667 1152.97 123.933 1161.91C141.533 1180.97 144.2 1187.11 136.067 1190.17C132.067 1191.64 128.333 1189.91 117 1181.51C83.4 1156.31 53.6667 1122.31 37.8 1090.71C26.2 1067.37 22.6 1051.91 22.4667 1023.64C22.4667 1010.31 23 998.572 24.0667 993.639C27.2667 979.239 41.8 936.039 47 925.906C48.4667 922.972 49.6667 920.172 49.6667 919.372C49.6667 918.705 50.4667 916.172 51.5333 913.905C52.6 911.505 55 905.239 56.8667 899.905C58.7333 894.572 62.2 885.905 64.4667 880.572C66.7333 875.239 70.3333 866.172 72.4667 860.305C74.6 854.439 76.7333 848.705 77.2667 847.639C77.6667 846.572 78.2 844.972 78.4667 844.305C78.6 843.505 81.2667 836.572 84.2 828.705C90.2 813.105 90.7333 808.972 87.5333 802.972C84.8667 797.905 82.3333 780.039 83.5333 775.239C84.6 770.572 91.1333 763.239 94.4667 762.972C112.467 761.239 123.267 757.505 130.6 750.305C137 743.905 137.667 740.572 137.667 716.705C137.667 701.905 137.4 700.705 134.6 697.772C131.933 695.105 130.6 694.839 126.2 695.505C119.533 696.705 107 693.905 104.733 690.839C101.933 686.972 100.2 678.839 100.333 670.572C100.467 666.439 100.467 625.239 100.333 579.105C100.333 501.639 100.467 494.839 102.6 490.572C106.467 482.972 110.2 480.972 122.067 480.705C135.133 480.305 136.867 478.839 137.267 467.239C137.533 462.705 137.533 405.239 137.4 339.639C137.4 274.039 137.267 205.639 137.4 187.639C137.4 169.639 137.533 134.705 137.533 110.039C137.533 85.2388 137.933 63.6388 138.333 61.9055C139.133 59.1055 139.933 58.8388 149.667 58.4388C159 58.1722 160.333 58.4388 161.533 60.7055Z" fill="#024B18"/>
<path d="M132.867 509.372C131.8 509.905 130.067 512.305 128.867 514.572C127 518.172 126.733 526.972 126.6 586.839C126.6 624.305 127 656.839 127.533 658.972C128.067 661.239 129.533 663.772 131 664.705C133 665.905 150.2 666.305 199.267 666.305C260.867 666.439 265 666.305 267.267 664.039C269.533 661.772 269.667 657.239 269.8 587.772C269.933 516.039 269.8 513.905 267.267 511.372C264.733 508.839 262.333 508.705 199.667 508.439C164.067 508.439 133.933 508.839 132.867 509.372ZM265.267 513.372C266.067 514.305 265.933 660.705 265.133 662.172C264.867 662.572 234.6 662.839 197.933 662.572L131.267 662.305L130.467 659.239C130.067 657.639 129.667 625.105 129.667 586.972C129.667 529.505 129.933 517.105 131.533 514.839C133.4 512.305 134.733 512.172 198.867 512.439C234.867 512.439 264.733 512.972 265.267 513.372Z" fill="#024B18"/>
<path d="M341.133 192.706C340.733 193.372 341.267 193.906 342.333 193.906C343.4 193.906 343.933 193.372 343.533 192.706C343.133 192.172 342.6 191.639 342.333 191.639C342.067 191.639 341.533 192.172 341.133 192.706Z" fill="#024B18"/>
<path d="M358.867 261.906C357.133 264.039 357.267 264.172 359.4 262.439C360.6 261.506 361.667 260.439 361.667 260.172C361.667 259.106 360.6 259.772 358.867 261.906Z" fill="#024B18"/>
<path d="M316.333 626.839C316.333 627.906 316.867 629.106 317.533 629.506C318.2 630.039 318.467 629.106 318.067 627.639C317.267 624.572 316.333 624.172 316.333 626.839Z" fill="#024B18"/>
<path d="M141.533 887.372C136.733 891.772 130.6 906.306 121.667 934.306C113.533 959.906 110.467 976.972 111.667 988.972C113 1001.64 114.733 1005.64 124.733 1018.71C132.2 1028.44 133.667 1031.24 133.667 1035.51C133.667 1044.17 138.2 1066.04 145.133 1091.64C150.2 1109.91 150.067 1109.51 157 1127.64C167.133 1153.91 170.6 1158.57 178.333 1155.64C184.733 1153.24 184.467 1140.97 177.133 1110.97C174.733 1100.71 172.6 1091.37 172.6 1090.31C172.6 1089.24 171.533 1084.71 170.333 1080.31C169.133 1075.91 166.333 1062.04 164.2 1049.64C162.067 1037.11 159.267 1020.31 157.8 1012.31C154.733 994.439 153.4 968.572 153.133 922.972C153 903.906 152.467 887.639 151.933 886.839C149.933 883.506 145.533 883.772 141.533 887.372ZM150.2 934.706C151.133 991.772 152.467 1010.71 156.333 1022.97C157 1025.11 157.8 1030.17 158.2 1034.04C158.733 1038.04 159.267 1041.64 159.533 1042.17C159.933 1042.71 160.6 1046.17 161.133 1049.77C161.533 1053.37 162.2 1057.24 162.333 1058.57C162.6 1059.77 163.267 1063.64 163.8 1067.24C164.2 1070.71 165.4 1075.77 166.333 1078.31C167.267 1080.84 168.467 1085.11 168.867 1087.64C169.8 1093.64 170.333 1096.44 173.667 1109.64C181.133 1139.64 181.533 1152.31 175 1152.31C171.267 1152.31 167.933 1146.71 160.867 1128.31C152.867 1107.91 142.467 1072.31 141 1060.71C140.467 1055.91 139 1047.64 138.333 1044.97C138.2 1044.57 137.667 1040.44 137 1035.77C136.2 1029.24 135 1026.17 131.667 1021.77C121.933 1009.51 117.267 1002.04 117.133 998.439C117 996.306 116.467 994.839 115.933 995.239C114.333 996.172 115.133 970.839 116.867 962.306C121.267 941.906 137.933 896.306 143 890.972C149.133 884.439 149.267 886.039 150.2 934.706Z" fill="#024B18"/>
<path d="M247.133 886.839C246.067 888.172 245.4 901.372 245.133 931.239C244.867 954.572 243.933 978.972 243.133 985.639C242.333 992.172 240.733 1004.57 239.667 1012.97C238.6 1021.37 237.533 1029.24 237.533 1030.31C237.4 1031.37 235.667 1040.04 233.667 1049.64C231.533 1059.11 229.133 1070.57 228.333 1074.97C226.6 1084.97 224.6 1093.24 222.2 1100.97C219.4 1110.04 215 1137.91 215 1146.44C215 1152.31 215.533 1154.44 217.8 1156.31C220.333 1158.71 220.733 1158.71 224.067 1156.71C229.4 1153.51 231.667 1149.77 237.533 1135.51C244.467 1118.57 248.867 1104.57 252.333 1088.31C253.933 1080.97 256.2 1071.91 257.267 1068.31C258.333 1064.57 259.533 1056.17 259.8 1049.64C260.733 1033.37 262.067 1029.37 269.267 1021.64C276.467 1013.91 282.067 1002.44 284.333 990.572C285.667 983.906 285.667 980.172 284.333 971.906C283.4 966.306 282.467 960.039 282.2 958.039C281.933 956.039 280.2 950.039 278.333 944.706C276.333 939.372 272.867 928.706 270.467 920.972C263 897.106 256.6 884.972 251.533 884.972C249.933 884.972 247.933 885.772 247.133 886.839ZM254.733 890.572C257 893.506 264.2 911.639 266.467 920.172C267.667 924.572 270.467 933.372 272.867 939.639C275.267 945.906 278.067 955.106 279 960.306C279.933 965.372 280.867 970.839 281.133 972.306C283 981.239 283 985.239 281 992.972C278.467 1002.84 271.533 1016.04 266.2 1020.97C261.933 1024.84 257.667 1033.77 257.533 1039.24C257.267 1047.91 254.733 1067.24 253.4 1070.97C252.6 1073.11 251.533 1077.64 250.867 1080.97C249.8 1087.51 243.933 1110.71 242.333 1114.97C232.733 1141.24 228.333 1150.44 224.2 1152.57C219.4 1155.11 217.667 1152.71 218.6 1144.57C219 1140.71 219.267 1136.71 219.267 1135.64C219.133 1131.77 223.133 1109.91 225 1104.44C226.733 1099.11 230.067 1084.97 231.667 1075.64C232.2 1073.11 233 1068.31 233.667 1064.97C234.2 1061.64 235.933 1054.44 237.4 1048.97C239.8 1039.51 240.867 1033.24 242.467 1017.64C242.867 1013.91 243.8 1007.64 244.467 1003.64C245.267 999.639 246.2 992.706 246.6 988.306C246.867 983.906 247.667 975.772 248.333 970.306C248.867 964.839 249.267 944.972 249 926.306C248.867 907.639 249 891.506 249.4 890.572C249.667 889.772 250.733 888.972 251.667 888.972C252.6 888.972 253.933 889.772 254.733 890.572Z" fill="#024B18"/>
</g>
<defs>
<filter id="filter0_d_1_2" x="-4" y="0" width="406" height="1228.11" filterUnits="userSpaceOnUse" color-interpolation-filters="sRGB">
<feFlood flood-opacity="0" result="BackgroundImageFix"/>
<feColorMatrix in="SourceAlpha" type="matrix" values="0 0 0 0 0 0 0 0 0 0 0 0 0 0 0 0 0 0 127 0" result="hardAlpha"/>
<feOffset dy="4"/>
<feGaussianBlur stdDeviation="2"/>
<feComposite in2="hardAlpha" operator="out"/>
<feColorMatrix type="matrix" values="0 0 0 0 0 0 0 0 0 0 0 0 0 0 0 0 0 0 0.25 0"/>
<feBlend mode="normal" in2="BackgroundImageFix" result="effect1_dropShadow_1_2"/>
<feBlend mode="normal" in="SourceGraphic" in2="effect1_dropShadow_1_2" result="shape"/>
</filter>
</defs>
</svg>
